<svg xmlns="http://www.w3.org/2000/svg" viewBox="0 0 432 103" viewport="0 0 5120px 1220px"><title>1</title><g fill="#000002"><path d="M81 58.6c.3.6.6 1.2.9 1.9.2.6.5 1.2.7 1.9.2-.7.5-1.3.8-1.9.2-.7.5-1.3.9-1.9l17.4-31.7c.3-.5.6-.9 1-1 .3-.1.8-.2 1.4-.2h5.1v51.6h-6.1V39.4c0-.5 0-1 .1-1.6 0-.6 0-1.2.1-1.8L85.6 68.2c-.6 1.1-1.4 1.7-2.5 1.7h-1c-1.1 0-1.9-.6-2.5-1.7L61.5 35.9c.1.6.2 1.2.2 1.8v39.6h-6.1V25.7h5.2c.6 0 1.1.1 1.4.2.3.1.7.5 1 1L81 58.6zm67.8 13.1c2.2 0 4.1-.3 5.7-1 1.7-.8 3.1-1.8 4.3-3.1 1.2-1.3 2.1-2.8 2.7-4.6.6-1.8.9-3.8.9-5.9V25.7h6.9v31.4c0 2.9-.4 5.7-1.4 8.2-.9 2.6-2.3 4.8-4.1 6.6-1.7 1.9-3.9 3.3-6.4 4.4-2.6 1.1-5.4 1.6-8.6 1.6-3.1 0-6-.5-8.5-1.6-2.6-1.1-4.7-2.5-6.5-4.4-1.8-1.8-3.1-4-4.1-6.6-.9-2.5-1.4-5.3-1.4-8.2V25.7h6.9V57c0 2.2.3 4.2 1 6 .6 1.8 1.4 3.3 2.6 4.6 1.2 1.3 2.6 2.3 4.3 3 1.7.8 3.6 1.1 5.7 1.1zm65.9-37.9c-.2.4-.5.6-.7.8-.2.2-.5.3-.9.3s-.9-.2-1.4-.6c-.6-.4-1.3-.9-2.1-1.4-.8-.5-1.8-.9-3-1.3-1.1-.4-2.6-.6-4.2-.6s-2.9.2-4.1.6c-1.2.4-2.2 1-3 1.7-.8.7-1.5 1.5-1.9 2.5-.4 1-.6 2-.6 3.2 0 1.4.4 2.6 1.1 3.5.7 1 1.6 1.8 2.8 2.5 1.2.6 2.5 1.2 4 1.7 1.4.5 2.9 1 4.5 1.6 1.5.5 3 1.1 4.5 1.7 1.5.7 2.8 1.5 4 2.5 1.1 1 2.1 2.3 2.8 3.7.7 1.5 1 3.3 1 5.4 0 2.3-.4 4.4-1.1 6.4-.8 2-1.9 3.7-3.4 5.1-1.5 1.5-3.3 2.7-5.4 3.5-2.2.8-4.6 1.3-7.3 1.3-3.4 0-6.4-.7-9.1-1.9-2.8-1.2-5.1-2.8-7.1-4.9l2-3.3.7-.7c.3-.1.6-.2 1-.2.5 0 1 .2 1.7.8.6.5 1.4 1.1 2.4 1.8 1 .6 2.2 1.2 3.5 1.7 1.4.6 3.1.9 5.1.9 1.6 0 3.1-.3 4.4-.7 1.3-.5 2.4-1.1 3.3-2 .9-.8 1.6-1.8 2.1-2.9.4-1.2.7-2.4.7-3.9s-.4-2.8-1.1-3.8c-.7-1-1.6-1.8-2.8-2.5-1.1-.7-2.4-1.2-3.9-1.7s-3-1-4.5-1.4c-1.6-.5-3.1-1.1-4.6-1.7-1.4-.7-2.8-1.5-3.9-2.6-1.2-1-2.1-2.3-2.8-3.8-.7-1.6-1.1-3.5-1.1-5.8 0-1.8.4-3.6 1.1-5.3.7-1.7 1.7-3.2 3.1-4.5 1.3-1.3 3-2.4 5-3.2 1.9-.7 4.2-1.1 6.8-1.1 2.9 0 5.5.4 7.9 1.3 2.3.9 4.4 2.3 6.2 4l-1.7 3.3zm55 32.8c.4 0 .8.2 1.1.5l2.7 3c-2.1 2.4-4.7 4.3-7.7 5.7-3 1.4-6.6 2.1-10.9 2.1-3.7 0-7-.7-10.1-2-3-1.3-5.6-3.1-7.7-5.4-2.1-2.3-3.8-5.1-5-8.3-1.1-3.2-1.7-6.8-1.7-10.7 0-3.9.6-7.4 1.9-10.7 1.2-3.2 3-6 5.3-8.3 2.3-2.3 5-4.1 8.2-5.4 3.1-1.3 6.6-1.9 10.5-1.9 3.8 0 7 .5 9.8 1.7 2.7 1.2 5.2 2.8 7.3 4.8l-2.3 3.2c-.1.2-.3.4-.5.6-.3.2-.6.2-1 .2-.3 0-.6-.1-1-.3-.3-.2-.7-.5-1.2-.9-.5-.3-1.1-.6-1.7-1-.6-.4-1.4-.8-2.3-1.1-.9-.3-1.9-.6-3.1-.9-1.2-.2-2.5-.3-4.1-.3-2.7 0-5.2.5-7.5 1.4-2.3 1-4.3 2.3-5.9 4.1-1.7 1.7-3 3.9-3.9 6.4-.9 2.5-1.4 5.3-1.4 8.4 0 3.2.5 6.1 1.4 8.6.9 2.5 2.2 4.7 3.8 6.4 1.6 1.7 3.4 3.1 5.6 4 2.2.9 4.6 1.3 7.1 1.3 1.5 0 2.9-.1 4.1-.2 1.2-.2 2.4-.5 3.4-.9 1.1-.4 2-.8 2.9-1.4.9-.6 1.8-1.3 2.7-2.1.5-.4.8-.6 1.2-.6zm62.4 10.7h-5.4c-.6 0-1.2-.2-1.5-.5-.4-.3-.7-.7-.9-1.2l-4.8-12.4h-23.1l-4.9 12.4c-.1.5-.4.8-.8 1.2-.4.3-.9.5-1.5.5h-5.4l20.6-51.6h7.1l20.6 51.6zm-33.8-19.2h19.2l-8.1-20.9c-.5-1.3-1-2.9-1.5-4.9-.3 1-.5 1.9-.8 2.7-.2.9-.5 1.6-.7 2.2l-8.1 20.9zm77.6-32.4v5.9h-16.6v45.7h-7V31.6h-16.7v-5.9h40.3zm-75.2-9.1L294.2.4h7.1l6.5 16.2z"/><path d="M3.7.4h281.9l2.6 6.5H6.9v88.7h417.9V6.9H312.6L310 .4h121.4v101.8H.4V.4z"/></g></svg>